<svg xmlns="http://www.w3.org/2000/svg" fill="none" aria-label="RocDev" viewBox="0 0 370 192">
  <path fill="red" d="M358.9 116.7a181 181 0 0 0-15.5-22.6l-1.6-2a230.7 230.7 0 0 0-25.1-26.6l-1.8-1.5A191.5 191.5 0 0 0 274 36.3l-2-1A160.3 160.3 0 0 0 216.2 20l-2.4-.2c-4-.3-7.6-.4-11.3-.4-87.8 0-181 69-181.9 69.8l-9.1 7.1h25.6l.8-.7c.5-.3 44.6-34 105.4-38.8l2.9-.2c3.9-.3 7.4-.4 10.8-.4h.4c13 0 25.8 2 38.3 5.7l2 .6a152 152 0 0 1 39.1 19.3l1.8 1.2c8.8 6.1 17.1 13.2 24.8 21l1.7 1.6a117 117 0 0 1 12.4 15l.3.3h9.7l-3.4-5.3s-3-4.2-8.6-10.5l22.2-1.7c9.2 9.8 14.4 17 14.4 17.2l.3.3h9.8l-3.6-5c-.4-.6-4.1-5.8-10.8-13.3l30.1-2.3a179.8 179.8 0 0 1 13.9 20.2l.2.4h9.3l-2.4-4zM332 92.4l-31 2.4c-6.4-6.4-13-12.5-20-18.1l31.4-4.6 1.6 1.5c6.2 5.8 12.3 12.1 18 18.8zM175.4 44.3c13 0 26.2 1.9 39 5.6L198.6 54a140.5 140.5 0 0 0-32.4-5.8l9.3-4zm19.9-17-21.6 9a209 209 0 0 0-51.6 7.2 242.1 242.1 0 0 1 73.2-16.2zm33.4 18.9c-12-4.5-24.3-7.5-36.5-9l23-9.6a151 151 0 0 1 44.3 10.6l-30.8 8zm-.4 8.4a176 176 0 0 1 32.4 17L241 74.5a164.6 164.6 0 0 0-29-15.7l16.3-4.2zm44 15.3a193.8 193.8 0 0 0-31.4-18.6l30.2-7.8c11.6 5.8 22.8 13 33.3 21.7l-32.2 4.7zm-2.1 8.4c7 5.3 13.9 11 20.4 17.3l-21.9 1.7c-5.8-5.7-12-11.1-18.4-16l19.9-3zM150.6 46l-5.8 2.4c-5.4.3-10.9 1-16.4 1.8 7.5-1.9 15-3.3 22.2-4.2z"/>
  <path fill="#212121" fill-rule="evenodd" d="M23.8 136.7v16.5a33.4 33.4 0 0 0 1 9.7 4.3 4.3 0 0 0 2.1 1.7q1.8.8 3.8 1.2 2 .4 2.9.4a1.4 1.4 0 0 1 .4 1.6l-.2 1.7a447 447 0 0 1-9.2-.5 67.5 67.5 0 0 0-4-.1 20.6 20.6 0 0 0-1.4 0l-13.7.6a3.5 3.5 0 0 1-.3-2 1.5 1.5 0 0 1 .3-1.5 14 14 0 0 0 2.8-.4q1.6-.3 3.1-.8a3 3 0 0 0 1.9-1.2 19.2 19.2 0 0 0 .7-6.4 156.1 156.1 0 0 0 0-4.1V105a18 18 0 0 0-.6-4 2.7 2.7 0 0 0-1.8-1.2 20.7 20.7 0 0 0-3.2-.9 15.4 15.4 0 0 0-2.8-.3q-.5-.1-.5-1.6a2.8 2.8 0 0 1 .4-1.8l13.5.2a57.6 57.6 0 0 0 2 0 102 102 0 0 0 6-.1 136.5 136.5 0 0 1 7.8-.3 29.5 29.5 0 0 1 11.7 2.4 22.2 22.2 0 0 1 9 7q3.6 4.5 3.6 11.2a17.6 17.6 0 0 1-3.5 9.8q-3.6 5.2-9.7 8a1 1 0 0 0-.8.8.7.7 0 0 0 .2.3q5.5 11.7 12.9 19.8a43.8 43.8 0 0 0 13.2 10.8 10.9 10.9 0 0 0 4.3 1 3.5 3.5 0 0 1 .3 1.6 3.8 3.8 0 0 1-.3 1.6 11 11 0 0 1-3 .4 33.4 33.4 0 0 1-27.3-16.2 91.4 91.4 0 0 1-2.3-3.4 525.9 525.9 0 0 0-5.1-7.5q-1.8-2.6-3.2-4.3a9.5 9.5 0 0 0-3.3-2.6 11.6 11.6 0 0 0-5-1 4.8 4.8 0 0 0-2 .4 1.5 1.5 0 0 0-.7 1.6Zm9.8-6.8h2.8q2.7 0 5.6-1.8a15 15 0 0 0 4.8-5q2-3.3 2-7.5A13.8 13.8 0 0 0 33 99.9q-5.1 0-7.8.8-1 .3-1.2 3.7-.2 3.4-.2 8.7v13.6a4.8 4.8 0 0 0 5.5 3 39.2 39.2 0 0 0 4.3.2Zm70.1 40.1q-6.8 0-12.4-3.5-5.6-3.3-9-9a24.7 24.7 0 0 1-3.2-12.6 25 25 0 0 1 3.2-12.6 24.3 24.3 0 0 1 8.7-9 23.7 23.7 0 0 1 12.4-3.3q6.8 0 12.3 3.4a25.5 25.5 0 0 1 9 9 24 24 0 0 1 3.2 12.5 25 25 0 0 1-3.2 12.5 25 25 0 0 1-8.7 9.1q-5.5 3.5-12.3 3.5Zm1-4.5a10.6 10.6 0 0 0 7-2.6q3-2.5 4.8-7a25.6 25.6 0 0 0 1.8-9.5 26.7 26.7 0 0 0-2.3-11 21.4 21.4 0 0 0-5.9-8q-3.6-3-7.9-3-4 0-7 2.6-3 2.5-4.8 6.7a25.4 25.4 0 0 0-1.7 9.5q0 6 2.2 11.2a21.2 21.2 0 0 0 5.9 8.1q3.6 3 7.9 3Zm69.7-6.8.8-.6a1.1 1.1 0 0 1 .7 1.5 4.5 4.5 0 0 1-.7 2q-2.2 3.1-6.6 5.7a18.8 18.8 0 0 1-9.6 2.5 20.9 20.9 0 0 1-11.3-3.3 24.2 24.2 0 0 1-8.3-8.7q-3-5.4-3-12.1a31.5 31.5 0 0 1 2.5-12.8q2.5-5.8 7.4-9.3a19.9 19.9 0 0 1 11.8-3.4 21.4 21.4 0 0 1 17 5.6 11.6 11.6 0 0 1 .1 0 5.7 5.7 0 0 1-4.1 7.6 4.5 4.5 0 0 1-3-.8 16.8 16.8 0 0 1-2.5-3.1 10 10 0 0 0-8.4-5.2 11 11 0 0 0-8.3 4.4q-3.8 4.4-3.8 13 0 9 4.5 15a14.5 14.5 0 0 0 12.2 6q4.8 0 8-1.5a23.6 23.6 0 0 0 4.6-2.5Zm21.1 10.4-13.6.4a2.7 2.7 0 0 1-.3-1.7 1.7 1.7 0 0 1 .3-1.6q1 0 2.7-.4 1.7-.4 3.2-1a3.3 3.3 0 0 0 1.9-1.2 19.2 19.2 0 0 0 .7-6.4 156.1 156.1 0 0 0 0-4.1v-48.2a18 18 0 0 0-.7-4 2.7 2.7 0 0 0-1.7-1.2 20.7 20.7 0 0 0-3.3-.9 15.4 15.4 0 0 0-2.8-.3q-.4 0-.4-1.4a2.8 2.8 0 0 1 .4-1.9l6.3.2a422.4 422.4 0 0 0 7.1 0h11a211.9 211.9 0 0 0 5.3-.1 133.7 133.7 0 0 1 3.3 0q12.2 0 20.8 5a34.8 34.8 0 0 1 13.3 13 36 36 0 0 1 4.6 18q0 10.8-4.7 19.5-4.6 8.8-13.3 13.8a37.8 37.8 0 0 1-19.4 4.8 54.1 54.1 0 0 1-1.5 0l-8-.3-6.1-.1a90.6 90.6 0 0 0-1.8 0 65.2 65.2 0 0 0-3.3 0Zm20.3-69h-.6a51.2 51.2 0 0 0-11.7 1 3.3 3.3 0 0 0-1.8.9q-1.4 1.9-1.4 7v44.5a21.4 21.4 0 0 0 1.6 8.5q.3.6 2 1a37.4 37.4 0 0 0 4 .7 107.9 107.9 0 0 0 4.8.4l3.8.2q25.9 0 25.9-33.4a38.4 38.4 0 0 0-3-15.5q-3-7-9-11-5.9-4.2-14.6-4.2ZM301 143h-28.3a.7.7 0 0 0-1 .6 22.1 22.1 0 0 0 2 9 17.8 17.8 0 0 0 5.6 7.2 14.6 14.6 0 0 0 9.1 2.8q4.7 0 8-1.4a23.6 23.6 0 0 0 4.6-2.5l.8-.6a1.1 1.1 0 0 1 .7 1.5 4.5 4.5 0 0 1-.7 2q-2.3 3.1-6.6 5.7a18.8 18.8 0 0 1-9.6 2.5 20.9 20.9 0 0 1-11.3-3.3 24.2 24.2 0 0 1-8.3-8.7q-3-5.4-3-12.1 0-8 2.8-13.6 3-5.8 8-8.9a21.3 21.3 0 0 1 11.4-3q5.1 0 9 2 4 1.9 6.1 5a25 25 0 0 1 3 6.3 22.1 22.1 0 0 1 1 6.3 3.6 3.6 0 0 1-.7 2.8 4.6 4.6 0 0 1-2.6.5Zm-28.3-4.6h21.9a.9.9 0 0 0 .6-1.2 13.8 13.8 0 0 0-1.3-5.4q-1.3-3-4-5.2a9.6 9.6 0 0 0-6.4-2.3 8.7 8.7 0 0 0-6.2 2.4 16.5 16.5 0 0 0-4 5.5 13.7 13.7 0 0 0-1.3 5.4q0 .8.7.8Zm51.9-12 13.2 30 11.4-25.8q.5-1.1.7-2a7.4 7.4 0 0 0 .2-1.4 5.6 5.6 0 0 0-7.1-3.5 33 33 0 0 0-1 0 1.3 1.3 0 0 1-.5-1.5 2.6 2.6 0 0 1 .5-1.8q1.2 0 4.6.4a54 54 0 0 0 4.5.2 38.3 38.3 0 0 0 1.6 0l11.2-.6.2 1.7q0 1.5-.8 1.5a13.4 13.4 0 0 0-4.1 1 5.5 5.5 0 0 0-3.5 2.9l-17.9 40.3a3.9 3.9 0 0 1-2.3 2.3 3.8 3.8 0 0 1-1.1.2.8.8 0 0 1-.8-.4 1104.2 1104.2 0 0 0-3-7 6362.4 6362.4 0 0 0-5.3-12.3 562.2 562.2 0 0 0-6.1-13.8 286.3 286.3 0 0 0-5.3-11q-1.2-2.2-6.6-2.2a1.3 1.3 0 0 1-.5-1.4 2.6 2.6 0 0 1 .5-1.8q2.9 0 5.8.3l5.9.2 5.6-.2 5.6-.3a2 2 0 0 1 .1.8 8.8 8.8 0 0 1 0 1 1.6 1.6 0 0 1-.6 1.4 4.6 4.6 0 0 0-5.5 2 1.3 1.3 0 0 0 .2.3 6.7 6.7 0 0 0 .2.5Z" font-size="12"/>
</svg>
